<svg width="95" height="21" viewBox="0 0 95 21" fill="none" xmlns="http://www.w3.org/2000/svg">
<path d="M8.19434 20L3.72559 5.43848H3.61133C3.77214 8.40072 3.85254 10.377 3.85254 11.3672V20H0.335938V1.43945H5.69336L10.0859 15.6328H10.1621L14.8213 1.43945H20.1787V20H16.5098V11.2148C16.5098 10.8001 16.514 10.3219 16.5225 9.78027C16.5394 9.23861 16.5986 7.7998 16.7002 5.46387H16.5859L11.7998 20H8.19434ZM29.9699 8.29492C29.1489 8.29492 28.5057 8.55729 28.0402 9.08203C27.5747 9.59831 27.3081 10.3346 27.2404 11.291H32.674C32.657 10.3346 32.4074 9.59831 31.9249 9.08203C31.4425 8.55729 30.7908 8.29492 29.9699 8.29492ZM30.5158 20.2539C28.2306 20.2539 26.4448 19.6234 25.1583 18.3623C23.8719 17.1012 23.2286 15.3154 23.2286 13.0049C23.2286 10.6266 23.8211 8.79004 25.006 7.49512C26.1993 6.19173 27.8455 5.54004 29.9445 5.54004C31.9503 5.54004 33.5118 6.11133 34.629 7.25391C35.7462 8.39648 36.3048 9.97493 36.3048 11.9893V13.8682H27.1515C27.1938 14.9684 27.5197 15.8275 28.129 16.4453C28.7384 17.0632 29.5932 17.3721 30.6935 17.3721C31.5483 17.3721 32.3566 17.2832 33.1183 17.1055C33.88 16.9277 34.6756 16.6442 35.505 16.2549V19.251C34.8279 19.5895 34.1043 19.8392 33.3341 20C32.5639 20.1693 31.6245 20.2539 30.5158 20.2539ZM44.9661 17.1689C45.6432 17.1689 46.4557 17.0208 47.4036 16.7246V19.6064C46.4387 20.0381 45.2538 20.2539 43.8489 20.2539C42.3001 20.2539 41.1702 19.8646 40.4592 19.0859C39.7568 18.2988 39.4055 17.1224 39.4055 15.5566V8.71387H37.552V7.07617L39.6848 5.78125L40.802 2.78516H43.2776V5.80664H47.2512V8.71387H43.2776V15.5566C43.2776 16.1068 43.4299 16.513 43.7346 16.7754C44.0478 17.0378 44.4583 17.1689 44.9661 17.1689ZM62.9203 20H59.0482V11.71C59.0482 9.66178 58.2865 8.6377 56.7631 8.6377C55.6798 8.6377 54.8969 9.00586 54.4145 9.74219C53.932 10.4785 53.6908 11.6719 53.6908 13.3223V20H49.8187V0.246094H53.6908V4.27051C53.6908 4.58366 53.6612 5.31999 53.602 6.47949L53.5131 7.62207H53.7162C54.5795 6.23405 55.9506 5.54004 57.8295 5.54004C59.4968 5.54004 60.7621 5.98861 61.6254 6.88574C62.4887 7.78288 62.9203 9.06934 62.9203 10.7451V20ZM69.5249 12.8779C69.5249 14.2829 69.7534 15.3451 70.2105 16.0645C70.676 16.7839 71.4292 17.1436 72.4702 17.1436C73.5028 17.1436 74.2434 16.7881 74.6919 16.0771C75.149 15.3577 75.3775 14.2913 75.3775 12.8779C75.3775 11.473 75.149 10.4193 74.6919 9.7168C74.2349 9.01432 73.4859 8.66309 72.4449 8.66309C71.4123 8.66309 70.6675 9.01432 70.2105 9.7168C69.7534 10.4108 69.5249 11.4645 69.5249 12.8779ZM79.3384 12.8779C79.3384 15.1885 78.729 16.9954 77.5103 18.2988C76.2915 19.6022 74.5946 20.2539 72.4195 20.2539C71.0568 20.2539 69.855 19.9577 68.814 19.3652C67.773 18.7643 66.9732 17.9053 66.4146 16.7881C65.856 15.6709 65.5767 14.3675 65.5767 12.8779C65.5767 10.5589 66.1818 8.75618 67.3921 7.46973C68.6024 6.18327 70.3036 5.54004 72.4956 5.54004C73.8583 5.54004 75.0601 5.83626 76.1011 6.42871C77.1421 7.02116 77.9419 7.87174 78.5005 8.98047C79.0591 10.0892 79.3384 11.3883 79.3384 12.8779ZM86.5651 20.2539C84.8978 20.2539 83.5859 19.6064 82.6296 18.3115C81.6816 17.0166 81.2077 15.2223 81.2077 12.9287C81.2077 10.6012 81.6901 8.79004 82.6549 7.49512C83.6283 6.19173 84.9655 5.54004 86.6667 5.54004C88.4525 5.54004 89.8151 6.23405 90.7546 7.62207H90.8815C90.6868 6.56413 90.5895 5.62044 90.5895 4.79102V0.246094H94.4743V20H91.5036L90.7546 18.1592H90.5895C89.7093 19.5557 88.3678 20.2539 86.5651 20.2539ZM87.9235 17.1689C88.9137 17.1689 89.6374 16.8812 90.0944 16.3057C90.5599 15.7301 90.8138 14.7526 90.8561 13.373V12.9541C90.8561 11.4307 90.6191 10.3389 90.1452 9.67871C89.6797 9.01855 88.918 8.68848 87.86 8.68848C86.9967 8.68848 86.3239 9.05664 85.8415 9.79297C85.3675 10.5208 85.1305 11.583 85.1305 12.9795C85.1305 14.376 85.3717 15.4255 85.8542 16.1279C86.3366 16.8219 87.0264 17.1689 87.9235 17.1689Z" fill="#222B45"/>
</svg>
