<svg width="203" height="27" viewBox="0 0 203 27" fill="none" xmlns="http://www.w3.org/2000/svg">
<path d="M2.39355 25.459C1.50488 25.459 0.730469 25.3659 0.0703125 25.1797V21.9043C0.747396 22.0736 1.36523 22.1582 1.92383 22.1582C2.78711 22.1582 3.40495 21.8874 3.77734 21.3457C4.14974 20.8125 4.33594 19.9746 4.33594 18.832V1.43945H8.27148V18.8066C8.27148 20.9733 7.77637 22.6237 6.78613 23.7578C5.7959 24.8919 4.33171 25.459 2.39355 25.459ZM22.2267 20L21.7062 18.1846H21.5031C21.0883 18.8447 20.5001 19.3568 19.7384 19.7207C18.9767 20.0762 18.1092 20.2539 17.1359 20.2539C15.4686 20.2539 14.2117 19.8096 13.3654 18.9209C12.519 18.0238 12.0958 16.7373 12.0958 15.0615V5.80664H15.9679V14.0967C15.9679 15.1208 16.1499 15.891 16.5138 16.4072C16.8777 16.915 17.4575 17.1689 18.2531 17.1689C19.3364 17.1689 20.1193 16.8092 20.6017 16.0898C21.0841 15.362 21.3253 14.1602 21.3253 12.4844V5.80664H25.1974V20H22.2267ZM41.8948 20H38.0227V11.71C38.0227 10.6859 37.8408 9.91992 37.4768 9.41211C37.1129 8.89583 36.5331 8.6377 35.7376 8.6377C34.6542 8.6377 33.8714 9.00163 33.3889 9.72949C32.9065 10.4489 32.6653 11.6465 32.6653 13.3223V20H28.7932V5.80664H31.7512L32.2717 7.62207H32.4876C32.9192 6.93652 33.5117 6.42025 34.2649 6.07324C35.0266 5.71777 35.8899 5.54004 36.8548 5.54004C38.5051 5.54004 39.7577 5.98861 40.6126 6.88574C41.4674 7.77441 41.8948 9.06087 41.8948 10.7451V20ZM48.4994 12.8779C48.4994 14.2829 48.7279 15.3451 49.185 16.0645C49.6505 16.7839 50.4037 17.1436 51.4447 17.1436C52.4773 17.1436 53.2178 16.7881 53.6664 16.0771C54.1234 15.3577 54.352 14.2913 54.352 12.8779C54.352 11.473 54.1234 10.4193 53.6664 9.7168C53.2094 9.01432 52.4604 8.66309 51.4193 8.66309C50.3868 8.66309 49.642 9.01432 49.185 9.7168C48.7279 10.4108 48.4994 11.4645 48.4994 12.8779ZM58.3129 12.8779C58.3129 15.1885 57.7035 16.9954 56.4848 18.2988C55.266 19.6022 53.5691 20.2539 51.3939 20.2539C50.0313 20.2539 48.8295 19.9577 47.7885 19.3652C46.7475 18.7643 45.9477 17.9053 45.3891 16.7881C44.8305 15.6709 44.5512 14.3675 44.5512 12.8779C44.5512 10.5589 45.1563 8.75618 46.3666 7.46973C47.5769 6.18327 49.2781 5.54004 51.4701 5.54004C52.8327 5.54004 54.0346 5.83626 55.0756 6.42871C56.1166 7.02116 56.9164 7.87174 57.475 8.98047C58.0336 10.0892 58.3129 11.3883 58.3129 12.8779ZM74.147 20H70.2749V11.71C70.2749 10.6859 70.093 9.91992 69.729 9.41211C69.3651 8.89583 68.7854 8.6377 67.9898 8.6377C66.9064 8.6377 66.1236 9.00163 65.6411 9.72949C65.1587 10.4489 64.9175 11.6465 64.9175 13.3223V20H61.0454V5.80664H64.0035L64.524 7.62207H64.7398C65.1714 6.93652 65.7639 6.42025 66.5171 6.07324C67.2788 5.71777 68.1421 5.54004 69.107 5.54004C70.7574 5.54004 72.01 5.98861 72.8648 6.88574C73.7196 7.77441 74.147 9.06087 74.147 10.7451V20ZM86.6803 20L85.9313 18.0703H85.8298C85.1781 18.8913 84.5052 19.4626 83.8112 19.7842C83.1256 20.0973 82.2285 20.2539 81.1198 20.2539C79.7572 20.2539 78.6823 19.8646 77.8952 19.0859C77.1165 18.3073 76.7272 17.1986 76.7272 15.7598C76.7272 14.2533 77.252 13.1445 78.3014 12.4336C79.3594 11.7142 80.9505 11.3164 83.0749 11.2402L85.5378 11.1641V10.542C85.5378 9.10319 84.8014 8.38379 83.3288 8.38379C82.1947 8.38379 80.8617 8.72656 79.3298 9.41211L78.0475 6.79688C79.681 5.94206 81.4922 5.51465 83.4811 5.51465C85.3854 5.51465 86.8454 5.92936 87.861 6.75879C88.8766 7.58822 89.3844 8.84928 89.3844 10.542V20H86.6803ZM85.5378 13.4238L84.0397 13.4746C82.9141 13.5085 82.0762 13.7116 81.526 14.084C80.9759 14.4564 80.7008 15.0234 80.7008 15.7852C80.7008 16.877 81.3271 17.4229 82.5798 17.4229C83.4769 17.4229 84.1921 17.1647 84.7253 16.6484C85.2669 16.1322 85.5378 15.4466 85.5378 14.5918V13.4238ZM110.198 20H99.5087V1.43945H110.198V4.66406H103.444V8.73926H109.728V11.9639H103.444V16.75H110.198V20ZM116.219 12.751L111.649 5.80664H116.041L118.796 10.3262L121.576 5.80664H125.969L121.348 12.751L126.185 20H121.779L118.796 15.1377L115.8 20H111.407L116.219 12.751ZM135.671 20.2539C134.004 20.2539 132.696 19.6488 131.748 18.4385H131.545C131.681 19.6234 131.748 20.3089 131.748 20.4951V26.2461H127.876V5.80664H131.025L131.571 7.64746H131.748C132.654 6.24251 133.995 5.54004 135.773 5.54004C137.448 5.54004 138.76 6.1875 139.708 7.48242C140.656 8.77734 141.13 10.5758 141.13 12.8779C141.13 14.3929 140.906 15.709 140.457 16.8262C140.017 17.9434 139.387 18.7939 138.566 19.3779C137.745 19.9619 136.78 20.2539 135.671 20.2539ZM134.529 8.6377C133.572 8.6377 132.874 8.93392 132.434 9.52637C131.994 10.1104 131.765 11.0794 131.748 12.4336V12.8525C131.748 14.376 131.973 15.4678 132.421 16.1279C132.878 16.7881 133.598 17.1182 134.579 17.1182C136.314 17.1182 137.182 15.6878 137.182 12.8271C137.182 11.4307 136.966 10.3854 136.534 9.69141C136.111 8.98893 135.443 8.6377 134.529 8.6377ZM147.735 20H143.863V0.246094H147.735V20ZM154.428 12.8779C154.428 14.2829 154.657 15.3451 155.114 16.0645C155.579 16.7839 156.332 17.1436 157.374 17.1436C158.406 17.1436 159.147 16.7881 159.595 16.0771C160.052 15.3577 160.281 14.2913 160.281 12.8779C160.281 11.473 160.052 10.4193 159.595 9.7168C159.138 9.01432 158.389 8.66309 157.348 8.66309C156.316 8.66309 155.571 9.01432 155.114 9.7168C154.657 10.4108 154.428 11.4645 154.428 12.8779ZM164.242 12.8779C164.242 15.1885 163.632 16.9954 162.414 18.2988C161.195 19.6022 159.498 20.2539 157.323 20.2539C155.96 20.2539 154.758 19.9577 153.717 19.3652C152.676 18.7643 151.876 17.9053 151.318 16.7881C150.759 15.6709 150.48 14.3675 150.48 12.8779C150.48 10.5589 151.085 8.75618 152.295 7.46973C153.506 6.18327 155.207 5.54004 157.399 5.54004C158.762 5.54004 159.963 5.83626 161.004 6.42871C162.045 7.02116 162.845 7.87174 163.404 8.98047C163.962 10.0892 164.242 11.3883 164.242 12.8779ZM174.896 5.54004C175.421 5.54004 175.857 5.57812 176.204 5.6543L175.912 9.28516C175.599 9.20052 175.218 9.1582 174.769 9.1582C173.533 9.1582 172.569 9.47559 171.875 10.1104C171.189 10.7451 170.846 11.6338 170.846 12.7764V20H166.974V5.80664H169.907L170.478 8.19336H170.669C171.109 7.39779 171.701 6.75879 172.446 6.27637C173.199 5.78548 174.016 5.54004 174.896 5.54004ZM184.192 8.29492C183.371 8.29492 182.728 8.55729 182.262 9.08203C181.797 9.59831 181.53 10.3346 181.463 11.291H186.896C186.879 10.3346 186.63 9.59831 186.147 9.08203C185.665 8.55729 185.013 8.29492 184.192 8.29492ZM184.738 20.2539C182.453 20.2539 180.667 19.6234 179.381 18.3623C178.094 17.1012 177.451 15.3154 177.451 13.0049C177.451 10.6266 178.043 8.79004 179.228 7.49512C180.422 6.19173 182.068 5.54004 184.167 5.54004C186.173 5.54004 187.734 6.11133 188.851 7.25391C189.968 8.39648 190.527 9.97493 190.527 11.9893V13.8682H181.374C181.416 14.9684 181.742 15.8275 182.351 16.4453C182.961 17.0632 183.815 17.3721 184.916 17.3721C185.771 17.3721 186.579 17.2832 187.341 17.1055C188.102 16.9277 188.898 16.6442 189.727 16.2549V19.251C189.05 19.5895 188.327 19.8392 187.556 20C186.786 20.1693 185.847 20.2539 184.738 20.2539ZM201.131 5.54004C201.655 5.54004 202.091 5.57812 202.438 5.6543L202.146 9.28516C201.833 9.20052 201.452 9.1582 201.004 9.1582C199.768 9.1582 198.803 9.47559 198.109 10.1104C197.424 10.7451 197.081 11.6338 197.081 12.7764V20H193.209V5.80664H196.141L196.713 8.19336H196.903C197.343 7.39779 197.936 6.75879 198.681 6.27637C199.434 5.78548 200.251 5.54004 201.131 5.54004Z" fill="#222B45"/>
</svg>
